<?xml version="1.0" encoding="UTF-8" standalone="no"?>
<!-- Created with Inkscape (http://www.inkscape.org/) -->

<svg
   xmlns:dc="http://purl.org/dc/elements/1.1/"
   xmlns:cc="http://creativecommons.org/ns#"
   xmlns:rdf="http://www.w3.org/1999/02/22-rdf-syntax-ns#"
   xmlns:svg="http://www.w3.org/2000/svg"
   xmlns="http://www.w3.org/2000/svg"
   xmlns:sodipodi="http://sodipodi.sourceforge.net/DTD/sodipodi-0.dtd"
   xmlns:inkscape="http://www.inkscape.org/namespaces/inkscape"
   width="53.037037"
   height="52.370369"
   id="svg3022"
   version="1.1"
   inkscape:version="0.48.4 r9939"
   sodipodi:docname="New document 2">
  <defs
     id="defs3024" />
  <sodipodi:namedview
     id="base"
     pagecolor="#ffffff"
     bordercolor="#666666"
     borderopacity="1.0"
     inkscape:pageopacity="0.0"
     inkscape:pageshadow="2"
     inkscape:zoom="3.959798"
     inkscape:cx="40.815287"
     inkscape:cy="9.8329729"
     inkscape:document-units="px"
     inkscape:current-layer="layer1"
     showgrid="false"
     fit-margin-top="2"
     fit-margin-left="2"
     fit-margin-right="2"
     fit-margin-bottom="2"
     inkscape:window-width="825"
     inkscape:window-height="667"
     inkscape:window-x="0"
     inkscape:window-y="19"
     inkscape:window-maximized="0" />
  <metadata
     id="metadata3027">
    <rdf:RDF>
      <cc:Work
         rdf:about="">
        <dc:format>image/svg+xml</dc:format>
        <dc:type
           rdf:resource="http://purl.org/dc/dcmitype/StillImage" />
        <dc:title></dc:title>
      </cc:Work>
    </rdf:RDF>
  </metadata>
  <g
     inkscape:label="Layer 1"
     inkscape:groupmode="layer"
     id="layer1"
     transform="translate(-362.05291,-323.31985)">
    <circle
       sodipodi:ry="4.5"
       sodipodi:rx="4.5"
       sodipodi:cy="26.700001"
       sodipodi:cx="63.5"
       transform="matrix(0.74074074,0,0,0.74074074,352.49735,312.57911)"
       cx="63.5"
       cy="26.700001"
       r="4.5"
       id="circle5"
       d="m 68,26.700001 c 0,2.485281 -2.014719,4.5 -4.5,4.5 -2.485281,0 -4.5,-2.014719 -4.5,-4.5 0,-2.485282 2.014719,-4.5 4.5,-4.5 2.485281,0 4.5,2.014718 4.5,4.5 z"
       style="fill:#800000" />
    <circle
       sodipodi:ry="5"
       sodipodi:rx="5"
       sodipodi:cy="22.200001"
       sodipodi:cx="44.599998"
       transform="matrix(0.74074074,0,0,0.74074074,352.49735,312.57911)"
       cx="44.599998"
       cy="22.200001"
       r="5"
       id="circle7"
       d="m 49.599998,22.200001 c 0,2.761424 -2.238576,5 -5,5 -2.761423,0 -5,-2.238576 -5,-5 0,-2.761424 2.238577,-5 5,-5 2.761424,0 5,2.238576 5,5 z"
       style="fill:#ff00ff" />
    <circle
       sodipodi:ry="5.5999999"
       sodipodi:rx="5.5999999"
       sodipodi:cy="34.299999"
       sodipodi:cx="28"
       transform="matrix(0.74074074,0,0,0.74074074,352.49735,312.57911)"
       cx="28"
       cy="34.299999"
       r="5.5999999"
       id="circle9"
       d="m 33.6,34.299999 c 0,3.092795 -2.507205,5.6 -5.6,5.6 -3.092795,0 -5.6,-2.507205 -5.6,-5.6 0,-3.092794 2.507205,-5.6 5.6,-5.6 3.092795,0 5.6,2.507206 5.6,5.6 z"
       style="fill:#0000ff" />
    <circle
       sodipodi:ry="4.5"
       sodipodi:rx="4.5"
       sodipodi:cy="41.099998"
       sodipodi:cx="77.300003"
       transform="matrix(0.74074074,0,0,0.74074074,352.49735,312.57911)"
       cx="77.300003"
       cy="41.099998"
       r="4.5"
       id="circle11"
       d="m 81.800003,41.099998 c 0,2.485282 -2.014719,4.5 -4.5,4.5 -2.485281,0 -4.5,-2.014718 -4.5,-4.5 0,-2.485281 2.014719,-4.5 4.5,-4.5 2.485281,0 4.5,2.014719 4.5,4.5 z"
       style="fill:#00ffff" />
    <circle
       sodipodi:ry="6.0999999"
       sodipodi:rx="6.0999999"
       sodipodi:cy="55.299999"
       sodipodi:cx="21.700001"
       transform="matrix(0.74074074,0,0,0.74074074,352.49735,312.57911)"
       cx="21.700001"
       cy="55.299999"
       r="6.0999999"
       id="circle13"
       d="m 27.800001,55.299999 c 0,3.368937 -2.731063,6.1 -6.1,6.1 -3.368937,0 -6.1,-2.731063 -6.1,-6.1 0,-3.368937 2.731063,-6.1 6.1,-6.1 3.368937,0 6.1,2.731063 6.1,6.1 z"
       style="fill:#00ff00" />
    <circle
       sodipodi:ry="6.0999999"
       sodipodi:rx="6.0999999"
       sodipodi:cy="76.400002"
       sodipodi:cx="43.900002"
       transform="matrix(0.74074074,0,0,0.74074074,352.49735,312.57911)"
       cx="43.900002"
       cy="76.400002"
       r="6.0999999"
       id="circle15"
       d="m 50.000001,76.400002 c 0,3.368936 -2.731063,6.099999 -6.099999,6.099999 -3.368937,0 -6.1,-2.731063 -6.1,-6.099999 0,-3.368937 2.731063,-6.1 6.1,-6.1 3.368936,0 6.099999,2.731063 6.099999,6.1 z"
       style="fill:#ff0000" />
  </g>
</svg>
