<?xml version="1.0" encoding="UTF-8" standalone="no"?>
<svg
   xmlns:dc="http://purl.org/dc/elements/1.1/"
   xmlns:cc="http://creativecommons.org/ns#"
   xmlns:rdf="http://www.w3.org/1999/02/22-rdf-syntax-ns#"
   xmlns:svg="http://www.w3.org/2000/svg"
   xmlns="http://www.w3.org/2000/svg"
   xmlns:sodipodi="http://sodipodi.sourceforge.net/DTD/sodipodi-0.dtd"
   xmlns:inkscape="http://www.inkscape.org/namespaces/inkscape"
   version="1.1"
   id="Слой_1"
   x="0px"
   y="0px"
   viewBox="5 -10 70.611153 95.199997"
   enable-background="new 0 0 100 100"
   xml:space="preserve"
   height="70.518517"
   width="70.611153"
   inkscape:version="0.48.4 r9939"
   sodipodi:docname="noun_101709_cc.svg"><metadata
     id="metadata25"><rdf:RDF><cc:Work
         rdf:about=""><dc:format>image/svg+xml</dc:format><dc:type
           rdf:resource="http://purl.org/dc/dcmitype/StillImage" /><dc:title></dc:title></cc:Work></rdf:RDF></metadata><defs
     id="defs23" /><sodipodi:namedview
     pagecolor="#ffffff"
     bordercolor="#666666"
     borderopacity="1"
     objecttolerance="10"
     gridtolerance="10"
     guidetolerance="10"
     inkscape:pageopacity="0"
     inkscape:pageshadow="2"
     inkscape:window-width="1280"
     inkscape:window-height="775"
     id="namedview21"
     showgrid="false"
     fit-margin-top="2"
     fit-margin-left="2"
     fit-margin-right="2"
     fit-margin-bottom="2"
     inkscape:zoom="4.72"
     inkscape:cx="40.660161"
     inkscape:cy="22.693914"
     inkscape:window-x="0"
     inkscape:window-y="0"
     inkscape:window-maximized="1"
     inkscape:current-layer="Слой_1" /><path
     d="m 38.449304,82.5 c 0.3,0 0.6,0 0.9,0 6.1,0 11.4,-3.5 13.7,-9.2 2.4,-5.7 1.1,-11.9 -3.2,-16.3 -1.5,-1.5 -2.3,-3.7 -2.2,-5.8 0.2,-2.2 1.2,-4.2 3,-5.5 1.2,-0.9 2.7,-1.4 4.3,-1.4 2.1,0 4.2,0.9 5.7,2.4 2.8,2.8 6.5,4.4 10.4,4.4 4.1,0 8.1,-1.7 10.9,-4.7 2.8,-2.9 4.2,-6.8 4,-10.9 -0.5,-11.6 -5.5,-22.4 -13.9,-30.4 -8.3,-8 -19.3,-12.4 -31,-12.4 -11.4,0 -22.3,4.2 -30.5,11.9 -9.0999999,8.4 -14.1999999,19.8 -14.4999999,32.1 -0.2,12.3 4.39999997,24 13.1999996,32.7 7.8000003,7.8 18.2000003,12.5 29.2000003,13.1 z"
     id="path3004"
     inkscape:connector-curvature="0" /><path
     d="m 13.949304,8.2 c 7.4,-6.8 17,-10.6 27.1,-10.6 10.4,0 20.2,3.9 27.6,11 7.5,7.1 11.8,16.7 12.3,27.1 0.2,3.5 -1.3,5.9 -2.6,7.2 -1.9,2 -4.5,3.1 -7.3,3.1 -1.8,0 -4.4,-0.5 -6.8,-2.9 -2.4,-2.4 -5.8,-3.8 -9.2,-3.8 -2.7,0 -5.2,0.8 -7.3,2.4 -2.9,2.2 -4.7,5.5 -5,9.1 -0.3,3.6 1.1,7.2 3.6,9.7 3.5,3.5 3.4,7.9 2.2,10.8 -1.2,3 -4.3,6.2 -9.1,6.2 h 0 c -0.2,0 -0.4,0 -0.6,0 -9.8,-0.6 -19,-4.7 -26,-11.6 C 5.0493037,58.1 0.84930407,47.8 1.0493041,36.8 1.2493041,25.9 5.8493037,15.7 13.949304,8.2 z"
     id="path3"
     style="fill:#ffff00"
     inkscape:connector-curvature="0" /></svg>